<svg width="71" height="81" viewBox="0 0 71 81" fill="none" xmlns="http://www.w3.org/2000/svg">
<path d="M70.0271 20.0781L70.1364 59.9798L35.4136 80.04L35.3043 40.1382L70.0271 20.0781Z" fill="#82D3E4"/>
<path d="M35.4135 80.04L0.909248 59.9798L0.799988 20.0781L35.3043 40.1382L35.4135 80.04Z" fill="#A7F4FA"/>
<path d="M35.3043 40.1384L0.799988 20.0783L35.5228 0.039978L70.0271 20.0783L35.3043 40.1384Z" fill="#98E5EF"/>
<path d="M53.3322 29.7369L53.3977 50.3434L35.4354 60.7231L35.3698 40.0948L53.3322 29.7369Z" fill="#4A9CFF"/>
<path d="M35.4354 60.7231L17.6042 50.3434L17.5386 29.7369L35.3698 40.0948L35.4354 60.7231Z" fill="#4CD9FF"/>
<path d="M35.3698 40.0947L17.5386 29.7368L35.5009 19.3571L53.3322 29.7368L35.3698 40.0947Z" fill="#5FC1FF"/>
</svg>
