<svg  viewBox="0 0 1440 900" fill="none" xmlns="http://www.w3.org/2000/svg">
<mask id="mask0" mask-type="alpha" maskUnits="userSpaceOnUse" x="0" y="0" width="1440" height="900">
<rect width="1440" height="900" fill="white"/>
</mask>
<g mask="url(#mask0)">
<path d="M841.1 -30.5922C819.546 -135.203 243.805 -69.6216 61.7012 -81.2478H-10.0996L-46 969.385C107.747 992.401 445.211 1037.72 565.087 1034.87C714.933 1031.31 1564.26 1017.77 1270.81 871.136C1135.43 803.486 843.934 799.658 820.124 674.196C796.314 548.733 951.647 423.271 680.593 311.672C409.539 200.073 862.654 74.0188 841.1 -30.5922Z" fill="url(#paint0_linear)"/>
<path d="M801.058 46.0002C793.151 212.39 677.168 227.342 728.436 420.807C769.003 573.893 1142.66 723.016 1071.37 840.5C879.229 1157.13 50.0546 1123.95 7.58885 1025.32C-47.6502 897.021 -93.7776 925.069 -144.538 1058.07C-195.298 1191.07 -283.998 684.778 -291.872 548.212C-298.172 438.959 -257.473 129.985 -236.336 -10.8459L808.981 -6.44414C835.483 -91.9666 915.695 -5.99478 915.695 -5.99478L808.981 -6.44414C804.912 6.68506 802.11 23.856 801.058 46.0002Z" fill="url(#paint1_linear)"/>
</g>
<defs>
<linearGradient id="paint0_linear" x1="361.929" y1="-81.2478" x2="680.615" y2="1362.22" gradientUnits="userSpaceOnUse">
<stop stop-color="#78C6DE"/>
<stop offset="1" stop-color="white" stop-opacity="0"/>
</linearGradient>
<linearGradient id="paint1_linear" x1="125.389" y1="529.747" x2="2043.67" y2="863.175" gradientUnits="userSpaceOnUse">
<stop stop-color="#42B2D6"/>
<stop offset="1" stop-color="white" stop-opacity="0"/>
</linearGradient>
</defs>
</svg>
